<?xml version="1.0" encoding="us-ascii" standalone="no"?><svg xmlns="http://www.w3.org/2000/svg" xmlns:xlink="http://www.w3.org/1999/xlink" contentStyleType="text/css" height="711px" preserveAspectRatio="none" style="width:665px;height:711px;background:#FFFFFF;" version="1.1" viewBox="0 0 665 711" width="665px" zoomAndPan="magnify"><defs/><g><!--class MCNode--><g id="elem_MCNode"><rect codeLine="1" fill="#F1F1F1" height="210.9688" id="MCNode" rx="2.5" ry="2.5" style="stroke:#181818;stroke-width:0.5;" width="150" x="7" y="494"/><ellipse cx="48.55" cy="510" fill="#F1F1F1" rx="11" ry="11" style="stroke:#181818;stroke-width:1.0;"/><path d="M52.3313,505.9688 C52.3313,505.5313 52.3156,505.3906 52.2219,505.2344 C52.0813,505 51.8,504.8438 51.5031,504.8438 C51.1594,504.8438 51.0188,504.9844 50.8469,505.4063 C50.2531,505.0313 49.5031,504.8438 48.6281,504.8438 C46.5188,504.8438 44.9406,506.1406 44.9406,507.8594 C44.9406,508.8281 45.4719,509.7344 46.3313,510.2188 C46.8781,510.5313 47.425,510.7031 48.5344,510.8906 C49.6906,511.0938 49.9563,511.1563 50.3156,511.3438 C50.6906,511.5469 50.925,511.8906 50.925,512.25 C50.925,512.9844 49.9406,513.5313 48.6906,513.5313 C47.5656,513.5313 46.4875,513.0469 46.3156,512.4375 C46.1906,511.9688 46.1906,511.9688 46.0656,511.8594 C45.9094,511.7031 45.6906,511.6094 45.4563,511.6094 C45.175,511.6094 44.925,511.7344 44.7531,511.9531 C44.6438,512.125 44.5969,512.3125 44.5969,512.7344 L44.5969,513.8594 C44.5969,514.625 44.8781,514.9844 45.4719,514.9844 C45.7375,514.9844 45.8625,514.9219 46.1438,514.5781 C46.9875,515.0156 47.8781,515.2344 48.8,515.2344 C51.1281,515.2344 52.6906,514.0469 52.6906,512.2813 C52.6906,511.3906 52.3781,510.7031 51.6906,510.1563 C51.1594,509.7344 50.5188,509.4844 49.0344,509.2188 C47.7688,508.9844 47.675,508.9531 47.3469,508.7813 C46.9719,508.5938 46.7063,508.2031 46.7063,507.8438 C46.7063,507.1094 47.5656,506.5469 48.6281,506.5469 C49.6906,506.5469 50.5031,507.0156 50.6594,507.6875 C50.7688,508.2344 50.7688,508.2344 50.8938,508.375 C51.0344,508.5 51.2688,508.6094 51.5031,508.6094 C51.7688,508.6094 52.0188,508.4688 52.1906,508.25 C52.3,508.0781 52.3313,507.9375 52.3313,507.4688 L52.3313,505.9688 Z " fill="#000000"/><text fill="#000000" font-family="sans-serif" font-size="14" lengthAdjust="spacing" textLength="59" x="68.45" y="514.8467">MCNode</text><line style="stroke:#181818;stroke-width:0.5;" x1="8" x2="156" y1="526" y2="526"/><text fill="#000000" font-family="sans-serif" font-size="14" lengthAdjust="spacing" textLength="109" x="13" y="542.9951">nodeId : UInt16</text><text fill="#000000" font-family="sans-serif" font-size="14" lengthAdjust="spacing" textLength="113" x="13" y="559.292">opcode : UInt32</text><text fill="#000000" font-family="sans-serif" font-size="14" lengthAdjust="spacing" textLength="90" x="13" y="575.5889">isLoad : Bool</text><text fill="#000000" font-family="sans-serif" font-size="14" lengthAdjust="spacing" textLength="96" x="13" y="591.8857">isStore : Bool</text><text fill="#000000" font-family="sans-serif" font-size="14" lengthAdjust="spacing" textLength="105" x="13" y="608.1826">isBarrier : Bool</text><text fill="#000000" font-family="sans-serif" font-size="14" lengthAdjust="spacing" textLength="108" x="13" y="624.4795">isAtomic : Bool</text><text fill="#000000" font-family="sans-serif" font-size="14" lengthAdjust="spacing" textLength="105" x="13" y="640.7764">isVector : Bool</text><text fill="#000000" font-family="sans-serif" font-size="14" lengthAdjust="spacing" textLength="123" x="13" y="657.0732">isCompute : Bool</text><text fill="#000000" font-family="sans-serif" font-size="14" lengthAdjust="spacing" textLength="92" x="13" y="673.3701">isFloat : Bool</text><text fill="#000000" font-family="sans-serif" font-size="14" lengthAdjust="spacing" textLength="138" x="13" y="689.667">isVirtualRoot : Bool</text><line style="stroke:#181818;stroke-width:0.5;" x1="8" x2="156" y1="696.9688" y2="696.9688"/></g><!--class MCEdge--><g id="elem_MCEdge"><rect codeLine="14" fill="#F1F1F1" height="96.8906" id="MCEdge" rx="2.5" ry="2.5" style="stroke:#181818;stroke-width:0.5;" width="193" x="192.5" y="551"/><ellipse cx="255.75" cy="567" fill="#F1F1F1" rx="11" ry="11" style="stroke:#181818;stroke-width:1.0;"/><path d="M259.5313,562.9688 C259.5313,562.5313 259.5156,562.3906 259.4219,562.2344 C259.2813,562 259,561.8438 258.7031,561.8438 C258.3594,561.8438 258.2188,561.9844 258.0469,562.4063 C257.4531,562.0313 256.7031,561.8438 255.8281,561.8438 C253.7188,561.8438 252.1406,563.1406 252.1406,564.8594 C252.1406,565.8281 252.6719,566.7344 253.5313,567.2188 C254.0781,567.5313 254.625,567.7031 255.7344,567.8906 C256.8906,568.0938 257.1563,568.1563 257.5156,568.3438 C257.8906,568.5469 258.125,568.8906 258.125,569.25 C258.125,569.9844 257.1406,570.5313 255.8906,570.5313 C254.7656,570.5313 253.6875,570.0469 253.5156,569.4375 C253.3906,568.9688 253.3906,568.9688 253.2656,568.8594 C253.1094,568.7031 252.8906,568.6094 252.6563,568.6094 C252.375,568.6094 252.125,568.7344 251.9531,568.9531 C251.8438,569.125 251.7969,569.3125 251.7969,569.7344 L251.7969,570.8594 C251.7969,571.625 252.0781,571.9844 252.6719,571.9844 C252.9375,571.9844 253.0625,571.9219 253.3438,571.5781 C254.1875,572.0156 255.0781,572.2344 256,572.2344 C258.3281,572.2344 259.8906,571.0469 259.8906,569.2813 C259.8906,568.3906 259.5781,567.7031 258.8906,567.1563 C258.3594,566.7344 257.7188,566.4844 256.2344,566.2188 C254.9688,565.9844 254.875,565.9531 254.5469,565.7813 C254.1719,565.5938 253.9063,565.2031 253.9063,564.8438 C253.9063,564.1094 254.7656,563.5469 255.8281,563.5469 C256.8906,563.5469 257.7031,564.0156 257.8594,564.6875 C257.9688,565.2344 257.9688,565.2344 258.0938,565.375 C258.2344,565.5 258.4688,565.6094 258.7031,565.6094 C258.9688,565.6094 259.2188,565.4688 259.3906,565.25 C259.5,565.0781 259.5313,564.9375 259.5313,564.4688 L259.5313,562.9688 Z " fill="#000000"/><text fill="#000000" font-family="sans-serif" font-size="14" lengthAdjust="spacing" textLength="58" x="276.25" y="571.8467">MCEdge</text><line style="stroke:#181818;stroke-width:0.5;" x1="193.5" x2="384.5" y1="583" y2="583"/><text fill="#000000" font-family="sans-serif" font-size="14" lengthAdjust="spacing" textLength="95" x="198.5" y="599.9951">from : UInt16</text><text fill="#000000" font-family="sans-serif" font-size="14" lengthAdjust="spacing" textLength="76" x="198.5" y="616.292">to : UInt16</text><text fill="#000000" font-family="sans-serif" font-size="14" lengthAdjust="spacing" textLength="181" x="198.5" y="632.5889">isDataDependency : Bool</text><line style="stroke:#181818;stroke-width:0.5;" x1="193.5" x2="384.5" y1="639.8906" y2="639.8906"/></g><!--class MCGraph--><g id="elem_MCGraph"><rect codeLine="20" fill="#F1F1F1" height="129.4844" id="MCGraph" rx="2.5" ry="2.5" style="stroke:#181818;stroke-width:0.5;" width="163" x="197.5" y="296.5"/><ellipse cx="241.75" cy="312.5" fill="#F1F1F1" rx="11" ry="11" style="stroke:#181818;stroke-width:1.0;"/><path d="M245.5313,308.4688 C245.5313,308.0313 245.5156,307.8906 245.4219,307.7344 C245.2813,307.5 245,307.3438 244.7031,307.3438 C244.3594,307.3438 244.2188,307.4844 244.0469,307.9063 C243.4531,307.5313 242.7031,307.3438 241.8281,307.3438 C239.7188,307.3438 238.1406,308.6406 238.1406,310.3594 C238.1406,311.3281 238.6719,312.2344 239.5313,312.7188 C240.0781,313.0313 240.625,313.2031 241.7344,313.3906 C242.8906,313.5938 243.1563,313.6563 243.5156,313.8438 C243.8906,314.0469 244.125,314.3906 244.125,314.75 C244.125,315.4844 243.1406,316.0313 241.8906,316.0313 C240.7656,316.0313 239.6875,315.5469 239.5156,314.9375 C239.3906,314.4688 239.3906,314.4688 239.2656,314.3594 C239.1094,314.2031 238.8906,314.1094 238.6563,314.1094 C238.375,314.1094 238.125,314.2344 237.9531,314.4531 C237.8438,314.625 237.7969,314.8125 237.7969,315.2344 L237.7969,316.3594 C237.7969,317.125 238.0781,317.4844 238.6719,317.4844 C238.9375,317.4844 239.0625,317.4219 239.3438,317.0781 C240.1875,317.5156 241.0781,317.7344 242,317.7344 C244.3281,317.7344 245.8906,316.5469 245.8906,314.7813 C245.8906,313.8906 245.5781,313.2031 244.8906,312.6563 C244.3594,312.2344 243.7188,311.9844 242.2344,311.7188 C240.9688,311.4844 240.875,311.4531 240.5469,311.2813 C240.1719,311.0938 239.9063,310.7031 239.9063,310.3438 C239.9063,309.6094 240.7656,309.0469 241.8281,309.0469 C242.8906,309.0469 243.7031,309.5156 243.8594,310.1875 C243.9688,310.7344 243.9688,310.7344 244.0938,310.875 C244.2344,311 244.4688,311.1094 244.7031,311.1094 C244.9688,311.1094 245.2188,310.9688 245.3906,310.75 C245.5,310.5781 245.5313,310.4375 245.5313,309.9688 L245.5313,308.4688 Z " fill="#000000"/><text fill="#000000" font-family="sans-serif" font-size="14" lengthAdjust="spacing" textLength="66" x="262.25" y="317.3467">MCGraph</text><line style="stroke:#181818;stroke-width:0.5;" x1="198.5" x2="359.5" y1="328.5" y2="328.5"/><text fill="#000000" font-family="sans-serif" font-size="14" lengthAdjust="spacing" textLength="145" x="203.5" y="345.4951">maxOpcode : UInt32</text><text fill="#000000" font-family="sans-serif" font-size="14" lengthAdjust="spacing" textLength="151" x="203.5" y="361.792">hasVirtualRoot : Bool</text><text fill="#000000" font-family="sans-serif" font-size="14" lengthAdjust="spacing" textLength="93" x="203.5" y="378.0889">source : Text</text><line style="stroke:#181818;stroke-width:0.5;" x1="198.5" x2="359.5" y1="385.3906" y2="385.3906"/><text fill="#000000" font-family="sans-serif" font-size="14" lengthAdjust="spacing" textLength="151" x="203.5" y="402.3857">nodes : List(MCNode)</text><text fill="#000000" font-family="sans-serif" font-size="14" lengthAdjust="spacing" textLength="150" x="203.5" y="418.6826">edges : List(MCEdge)</text></g><!--class MCSample--><g id="elem_MCSample"><rect codeLine="28" fill="#F1F1F1" height="162.0781" id="MCSample" rx="2.5" ry="2.5" style="stroke:#181818;stroke-width:0.5;" width="193" x="430.5" y="518.5"/><ellipse cx="484.75" cy="534.5" fill="#F1F1F1" rx="11" ry="11" style="stroke:#181818;stroke-width:1.0;"/><path d="M488.5313,530.4688 C488.5313,530.0313 488.5156,529.8906 488.4219,529.7344 C488.2813,529.5 488,529.3438 487.7031,529.3438 C487.3594,529.3438 487.2188,529.4844 487.0469,529.9063 C486.4531,529.5313 485.7031,529.3438 484.8281,529.3438 C482.7188,529.3438 481.1406,530.6406 481.1406,532.3594 C481.1406,533.3281 481.6719,534.2344 482.5313,534.7188 C483.0781,535.0313 483.625,535.2031 484.7344,535.3906 C485.8906,535.5938 486.1563,535.6563 486.5156,535.8438 C486.8906,536.0469 487.125,536.3906 487.125,536.75 C487.125,537.4844 486.1406,538.0313 484.8906,538.0313 C483.7656,538.0313 482.6875,537.5469 482.5156,536.9375 C482.3906,536.4688 482.3906,536.4688 482.2656,536.3594 C482.1094,536.2031 481.8906,536.1094 481.6563,536.1094 C481.375,536.1094 481.125,536.2344 480.9531,536.4531 C480.8438,536.625 480.7969,536.8125 480.7969,537.2344 L480.7969,538.3594 C480.7969,539.125 481.0781,539.4844 481.6719,539.4844 C481.9375,539.4844 482.0625,539.4219 482.3438,539.0781 C483.1875,539.5156 484.0781,539.7344 485,539.7344 C487.3281,539.7344 488.8906,538.5469 488.8906,536.7813 C488.8906,535.8906 488.5781,535.2031 487.8906,534.6563 C487.3594,534.2344 486.7188,533.9844 485.2344,533.7188 C483.9688,533.4844 483.875,533.4531 483.5469,533.2813 C483.1719,533.0938 482.9063,532.7031 482.9063,532.3438 C482.9063,531.6094 483.7656,531.0469 484.8281,531.0469 C485.8906,531.0469 486.7031,531.5156 486.8594,532.1875 C486.9688,532.7344 486.9688,532.7344 487.0938,532.875 C487.2344,533 487.4688,533.1094 487.7031,533.1094 C487.9688,533.1094 488.2188,532.9688 488.3906,532.75 C488.5,532.5781 488.5313,532.4375 488.5313,531.9688 L488.5313,530.4688 Z " fill="#000000"/><text fill="#000000" font-family="sans-serif" font-size="14" lengthAdjust="spacing" textLength="76" x="505.25" y="539.3467">MCSample</text><line style="stroke:#181818;stroke-width:0.5;" x1="431.5" x2="622.5" y1="550.5" y2="550.5"/><text fill="#000000" font-family="sans-serif" font-size="14" lengthAdjust="spacing" textLength="85" x="436.5" y="567.4951">failed : Bool</text><text fill="#000000" font-family="sans-serif" font-size="14" lengthAdjust="spacing" textLength="103" x="436.5" y="583.792">cycles : UInt64</text><text fill="#000000" font-family="sans-serif" font-size="14" lengthAdjust="spacing" textLength="144" x="436.5" y="600.0889">instructions : UInt64</text><text fill="#000000" font-family="sans-serif" font-size="14" lengthAdjust="spacing" textLength="128" x="436.5" y="616.3857">microOps : UInt64</text><text fill="#000000" font-family="sans-serif" font-size="14" lengthAdjust="spacing" textLength="148" x="436.5" y="632.6826">cacheMisses : UInt16</text><text fill="#000000" font-family="sans-serif" font-size="14" lengthAdjust="spacing" textLength="181" x="436.5" y="648.9795">contextSwitches : UInt16</text><text fill="#000000" font-family="sans-serif" font-size="14" lengthAdjust="spacing" textLength="144" x="436.5" y="665.2764">numRepeat : UInt16</text><line style="stroke:#181818;stroke-width:0.5;" x1="431.5" x2="622.5" y1="672.5781" y2="672.5781"/></g><!--class MCMetrics--><g id="elem_MCMetrics"><rect codeLine="38" fill="#F1F1F1" height="145.7813" id="MCMetrics" rx="2.5" ry="2.5" style="stroke:#181818;stroke-width:0.5;" width="263" x="395.5" y="288"/><ellipse cx="485.25" cy="304" fill="#F1F1F1" rx="11" ry="11" style="stroke:#181818;stroke-width:1.0;"/><path d="M489.0313,299.9688 C489.0313,299.5313 489.0156,299.3906 488.9219,299.2344 C488.7813,299 488.5,298.8438 488.2031,298.8438 C487.8594,298.8438 487.7188,298.9844 487.5469,299.4063 C486.9531,299.0313 486.2031,298.8438 485.3281,298.8438 C483.2188,298.8438 481.6406,300.1406 481.6406,301.8594 C481.6406,302.8281 482.1719,303.7344 483.0313,304.2188 C483.5781,304.5313 484.125,304.7031 485.2344,304.8906 C486.3906,305.0938 486.6563,305.1563 487.0156,305.3438 C487.3906,305.5469 487.625,305.8906 487.625,306.25 C487.625,306.9844 486.6406,307.5313 485.3906,307.5313 C484.2656,307.5313 483.1875,307.0469 483.0156,306.4375 C482.8906,305.9688 482.8906,305.9688 482.7656,305.8594 C482.6094,305.7031 482.3906,305.6094 482.1563,305.6094 C481.875,305.6094 481.625,305.7344 481.4531,305.9531 C481.3438,306.125 481.2969,306.3125 481.2969,306.7344 L481.2969,307.8594 C481.2969,308.625 481.5781,308.9844 482.1719,308.9844 C482.4375,308.9844 482.5625,308.9219 482.8438,308.5781 C483.6875,309.0156 484.5781,309.2344 485.5,309.2344 C487.8281,309.2344 489.3906,308.0469 489.3906,306.2813 C489.3906,305.3906 489.0781,304.7031 488.3906,304.1563 C487.8594,303.7344 487.2188,303.4844 485.7344,303.2188 C484.4688,302.9844 484.375,302.9531 484.0469,302.7813 C483.6719,302.5938 483.4063,302.2031 483.4063,301.8438 C483.4063,301.1094 484.2656,300.5469 485.3281,300.5469 C486.3906,300.5469 487.2031,301.0156 487.3594,301.6875 C487.4688,302.2344 487.4688,302.2344 487.5938,302.375 C487.7344,302.5 487.9688,302.6094 488.2031,302.6094 C488.4688,302.6094 488.7188,302.4688 488.8906,302.25 C489,302.0781 489.0313,301.9375 489.0313,301.4688 L489.0313,299.9688 Z " fill="#000000"/><text fill="#000000" font-family="sans-serif" font-size="14" lengthAdjust="spacing" textLength="75" x="505.75" y="308.8467">MCMetrics</text><line style="stroke:#181818;stroke-width:0.5;" x1="396.5" x2="657.5" y1="320" y2="320"/><text fill="#000000" font-family="sans-serif" font-size="14" lengthAdjust="spacing" textLength="175" x="401.5" y="336.9951">measuredCycles : UInt64</text><text fill="#000000" font-family="sans-serif" font-size="14" lengthAdjust="spacing" textLength="196" x="401.5" y="353.292">measuredMicroOps : UInt64</text><text fill="#000000" font-family="sans-serif" font-size="14" lengthAdjust="spacing" textLength="144" x="401.5" y="369.5889">numRepeat : UInt16</text><text fill="#000000" font-family="sans-serif" font-size="14" lengthAdjust="spacing" textLength="93" x="401.5" y="385.8857">source : Text</text><line style="stroke:#181818;stroke-width:0.5;" x1="396.5" x2="657.5" y1="393.1875" y2="393.1875"/><text fill="#000000" font-family="sans-serif" font-size="14" lengthAdjust="spacing" textLength="224" x="401.5" y="410.1826">noiseSamples : List(MCSample)</text><text fill="#000000" font-family="sans-serif" font-size="14" lengthAdjust="spacing" textLength="251" x="401.5" y="426.4795">workloadSamples : List(MCSample)</text></g><!--class MCDataPiece--><g id="elem_MCDataPiece"><rect codeLine="47" fill="#F1F1F1" height="96.8906" id="MCDataPiece" rx="2.5" ry="2.5" style="stroke:#181818;stroke-width:0.5;" width="213" x="296.5" y="131"/><ellipse cx="351.25" cy="147" fill="#F1F1F1" rx="11" ry="11" style="stroke:#181818;stroke-width:1.0;"/><path d="M355.0313,142.9688 C355.0313,142.5313 355.0156,142.3906 354.9219,142.2344 C354.7813,142 354.5,141.8438 354.2031,141.8438 C353.8594,141.8438 353.7188,141.9844 353.5469,142.4063 C352.9531,142.0313 352.2031,141.8438 351.3281,141.8438 C349.2188,141.8438 347.6406,143.1406 347.6406,144.8594 C347.6406,145.8281 348.1719,146.7344 349.0313,147.2188 C349.5781,147.5313 350.125,147.7031 351.2344,147.8906 C352.3906,148.0938 352.6563,148.1563 353.0156,148.3438 C353.3906,148.5469 353.625,148.8906 353.625,149.25 C353.625,149.9844 352.6406,150.5313 351.3906,150.5313 C350.2656,150.5313 349.1875,150.0469 349.0156,149.4375 C348.8906,148.9688 348.8906,148.9688 348.7656,148.8594 C348.6094,148.7031 348.3906,148.6094 348.1563,148.6094 C347.875,148.6094 347.625,148.7344 347.4531,148.9531 C347.3438,149.125 347.2969,149.3125 347.2969,149.7344 L347.2969,150.8594 C347.2969,151.625 347.5781,151.9844 348.1719,151.9844 C348.4375,151.9844 348.5625,151.9219 348.8438,151.5781 C349.6875,152.0156 350.5781,152.2344 351.5,152.2344 C353.8281,152.2344 355.3906,151.0469 355.3906,149.2813 C355.3906,148.3906 355.0781,147.7031 354.3906,147.1563 C353.8594,146.7344 353.2188,146.4844 351.7344,146.2188 C350.4688,145.9844 350.375,145.9531 350.0469,145.7813 C349.6719,145.5938 349.4063,145.2031 349.4063,144.8438 C349.4063,144.1094 350.2656,143.5469 351.3281,143.5469 C352.3906,143.5469 353.2031,144.0156 353.3594,144.6875 C353.4688,145.2344 353.4688,145.2344 353.5938,145.375 C353.7344,145.5 353.9688,145.6094 354.2031,145.6094 C354.4688,145.6094 354.7188,145.4688 354.8906,145.25 C355,145.0781 355.0313,144.9375 355.0313,144.4688 L355.0313,142.9688 Z " fill="#000000"/><text fill="#000000" font-family="sans-serif" font-size="14" lengthAdjust="spacing" textLength="95" x="371.75" y="151.8467">MCDataPiece</text><line style="stroke:#181818;stroke-width:0.5;" x1="297.5" x2="508.5" y1="163" y2="163"/><text fill="#000000" font-family="sans-serif" font-size="14" lengthAdjust="spacing" textLength="201" x="302.5" y="179.9951">metrics : Metrics.MCMetrics</text><text fill="#000000" font-family="sans-serif" font-size="14" lengthAdjust="spacing" textLength="170" x="302.5" y="196.292">graph : Graph.MCGraph</text><text fill="#000000" font-family="sans-serif" font-size="14" lengthAdjust="spacing" textLength="59" x="302.5" y="212.5889">id : Text</text><line style="stroke:#181818;stroke-width:0.5;" x1="297.5" x2="508.5" y1="219.8906" y2="219.8906"/></g><!--class MCDataset--><g id="elem_MCDataset"><rect codeLine="53" fill="#F1F1F1" height="64.2969" id="MCDataset" rx="2.5" ry="2.5" style="stroke:#181818;stroke-width:0.5;" width="188" x="309" y="7"/><ellipse cx="359.25" cy="23" fill="#F1F1F1" rx="11" ry="11" style="stroke:#181818;stroke-width:1.0;"/><path d="M363.0313,18.9688 C363.0313,18.5313 363.0156,18.3906 362.9219,18.2344 C362.7813,18 362.5,17.8438 362.2031,17.8438 C361.8594,17.8438 361.7188,17.9844 361.5469,18.4063 C360.9531,18.0313 360.2031,17.8438 359.3281,17.8438 C357.2188,17.8438 355.6406,19.1406 355.6406,20.8594 C355.6406,21.8281 356.1719,22.7344 357.0313,23.2188 C357.5781,23.5313 358.125,23.7031 359.2344,23.8906 C360.3906,24.0938 360.6563,24.1563 361.0156,24.3438 C361.3906,24.5469 361.625,24.8906 361.625,25.25 C361.625,25.9844 360.6406,26.5313 359.3906,26.5313 C358.2656,26.5313 357.1875,26.0469 357.0156,25.4375 C356.8906,24.9688 356.8906,24.9688 356.7656,24.8594 C356.6094,24.7031 356.3906,24.6094 356.1563,24.6094 C355.875,24.6094 355.625,24.7344 355.4531,24.9531 C355.3438,25.125 355.2969,25.3125 355.2969,25.7344 L355.2969,26.8594 C355.2969,27.625 355.5781,27.9844 356.1719,27.9844 C356.4375,27.9844 356.5625,27.9219 356.8438,27.5781 C357.6875,28.0156 358.5781,28.2344 359.5,28.2344 C361.8281,28.2344 363.3906,27.0469 363.3906,25.2813 C363.3906,24.3906 363.0781,23.7031 362.3906,23.1563 C361.8594,22.7344 361.2188,22.4844 359.7344,22.2188 C358.4688,21.9844 358.375,21.9531 358.0469,21.7813 C357.6719,21.5938 357.4063,21.2031 357.4063,20.8438 C357.4063,20.1094 358.2656,19.5469 359.3281,19.5469 C360.3906,19.5469 361.2031,20.0156 361.3594,20.6875 C361.4688,21.2344 361.4688,21.2344 361.5938,21.375 C361.7344,21.5 361.9688,21.6094 362.2031,21.6094 C362.4688,21.6094 362.7188,21.4688 362.8906,21.25 C363,21.0781 363.0313,20.9375 363.0313,20.4688 L363.0313,18.9688 Z " fill="#000000"/><text fill="#000000" font-family="sans-serif" font-size="14" lengthAdjust="spacing" textLength="79" x="379.75" y="27.8467">MCDataset</text><line style="stroke:#181818;stroke-width:0.5;" x1="310" x2="496" y1="39" y2="39"/><line style="stroke:#181818;stroke-width:0.5;" x1="310" x2="496" y1="47" y2="47"/><text fill="#000000" font-family="sans-serif" font-size="14" lengthAdjust="spacing" textLength="176" x="315" y="63.9951">data : List(MCDataPiece)</text></g><!--reverse link MCGraph to MCNode--><g id="link_MCGraph_MCNode"><path codeLine="57" d="M214.4278,439.5196 C193.3458,464.8296 180.225,480.581 157.35,508.042 " fill="none" id="MCGraph-backto-MCNode" style="stroke:#181818;stroke-width:1.0;"/><polygon fill="none" points="225.948,425.689,209.8176,435.6795,219.038,443.3596,225.948,425.689" style="stroke:#181818;stroke-width:1.0;"/></g><!--reverse link MCGraph to MCEdge--><g id="link_MCGraph_MCEdge"><path codeLine="58" d="M282.4534,443.6729 C284.1194,483.0749 285.463,514.844 286.985,550.836 " fill="none" id="MCGraph-backto-MCEdge" style="stroke:#181818;stroke-width:1.0;"/><polygon fill="none" points="281.693,425.689,276.4588,443.9264,288.448,443.4195,281.693,425.689" style="stroke:#181818;stroke-width:1.0;"/></g><!--reverse link MCMetrics to MCSample--><g id="link_MCMetrics_MCSample"><path codeLine="59" d="M527,452.243 C527,478.868 527,491.179 527,518.453 " fill="none" id="MCMetrics-backto-MCSample" style="stroke:#181818;stroke-width:1.0;"/><polygon fill="none" points="527,434.243,521,452.243,533,452.243,527,434.243" style="stroke:#181818;stroke-width:1.0;"/></g><!--reverse link MCDataPiece to MCGraph--><g id="link_MCDataPiece_MCGraph"><path codeLine="60" d="M359.8652,242.9408 C345.4432,263.8178 338.536,273.816 323.038,296.252 " fill="none" id="MCDataPiece-backto-MCGraph" style="stroke:#181818;stroke-width:1.0;"/><polygon fill="none" points="370.096,228.131,354.9286,239.5306,364.8019,246.3511,370.096,228.131" style="stroke:#181818;stroke-width:1.0;"/></g><!--reverse link MCDataPiece to MCMetrics--><g id="link_MCDataPiece_MCMetrics"><path codeLine="61" d="M446.1348,242.9408 C458.7628,261.2208 463.243,267.706 477.112,287.783 " fill="none" id="MCDataPiece-backto-MCMetrics" style="stroke:#181818;stroke-width:1.0;"/><polygon fill="none" points="435.904,228.131,441.1982,246.3511,451.0714,239.5306,435.904,228.131" style="stroke:#181818;stroke-width:1.0;"/></g><!--reverse link MCDataset to MCDataPiece--><g id="link_MCDataset_MCDataPiece"><path codeLine="62" d="M403,89.082 C403,106.708 403,111.131 403,130.926 " fill="none" id="MCDataset-backto-MCDataPiece" style="stroke:#181818;stroke-width:1.0;"/><polygon fill="none" points="403,71.082,397,89.082,409,89.082,403,71.082" style="stroke:#181818;stroke-width:1.0;"/></g><!--SRC=[TLFBRi8m4BpdAtmi1v3w40VKIu6sGYAbWhPtozw2rSGRsOu0jVtt-fNWG7gBPtRNC-EDDgfcXkIp5-H0lZD2fFrOS38XxmjfhiSMmOevCY2tDnOHUedKrKmH2t_U65IG0bEgb02LGWy6Iy5Iv0EOxKkH6PPLRJgJdWgafjCbbAbfiKPiuTyiqusJHxuDJZuLbgaFW-b9w3arT0uLI0wI7Vj6FIjQxVoiaXvM5p7iQ9yMGZJMYhdADpYO6AcsnwNGvYf4FR0mMA49x7GFEjTlQ5aLqGiL1II9ioChVBCJCxvpVcJe4oWxk8rSuQhgO8oo7UH2wtQ4ZuIXD5RnPY-CvJkKhCkrZSe_H0HJfJaO9PWEKG7LjG8-kv3OC7cFf9uB-e8K6a8gIN01S8dkKNtPRU7_bgIQtVE_2c0GLGS74nAzZ5fNbjtwHPWGln2Zk1WkTDw8Ev-imVYvt7wVTBHtUYdDWjt_38Vn5pp7t59aftmZ6knagOV8164zHEFbf2uIRUKV]--></g></svg>